<?xml version="1.0" encoding="UTF-8" standalone="no"?>
<svg
   xml:space="preserve"
   viewBox="0 0 624.65155 256.43564"
   version="1.1"
   id="svg8"
   sodipodi:docname="smig-logo-dark.svg"
   width="624.65155"
   height="256.43564"
   inkscape:version="1.4.2 (ebf0e940d0, 2025-05-08)"
   xmlns:inkscape="http://www.inkscape.org/namespaces/inkscape"
   xmlns:sodipodi="http://sodipodi.sourceforge.net/DTD/sodipodi-0.dtd"
   xmlns="http://www.w3.org/2000/svg"
   xmlns:svg="http://www.w3.org/2000/svg"><defs
     id="defs8" /><sodipodi:namedview
     id="namedview8"
     pagecolor="#ffffff"
     bordercolor="#000000"
     borderopacity="0.25"
     inkscape:showpageshadow="2"
     inkscape:pageopacity="0.0"
     inkscape:pagecheckerboard="0"
     inkscape:deskcolor="#d1d1d1"
     inkscape:zoom="0.88496016"
     inkscape:cx="366.68317"
     inkscape:cy="242.94879"
     inkscape:window-width="1876"
     inkscape:window-height="1172"
     inkscape:window-x="0"
     inkscape:window-y="0"
     inkscape:window-maximized="1"
     inkscape:current-layer="svg8" /><path
     fill="#1a96f8"
     d="m 98.142793,174.08164 v -46.42 l -27.69,34.953 -69.72600011,88.394 c -1.73399999,2.198 -0.17,5.427 2.63000001,5.427 H 108.77379 c 48.347,0 75.45,-40.325 73.684,-82.354 z"
     id="path1" /><path
     fill="#851dcc"
     d="m 98.859793,0.04164459 c 0,0 -37.133,-2.36999999 -61.352,28.64800041 -16.948,22.665 -17.756,44.287 -17.756,48.222 h 78.392 v 50.749995 l 28.466997,-35.932995 69.348,-84.6200004 c 2.313,-2.821 0.304,-7.06700001 -3.346,-7.06700001 z"
     id="path2" /><path
     fill="#330369"
     d="m 19.753793,76.911645 c 0,0.417 0.01,0.636 0.01,0.636 0,0 -3.02,54.989995 50.693,85.068995 l 27.687,-34.507 V 76.909645 h -78.39 z"
     id="path3" /><path
     fill="#1d2228"
     d="m 98.142793,127.66164 -27.69,34.953 27.695,11.474 z"
     class="st2"
     id="path4" /><path
     fill="#0766dc"
     d="m 182.45779,174.08164 c -1.165,-27.727 -14.894,-56.197 -43.384,-74.314995 l -12.468,-8.042 -28.465997,35.934995 0.005,46.423 z"
     id="path5" /><path
     fill="#1d2228"
     d="M 97.827793,128.10964 126.61079,91.729645 97.827793,76.666645 Z"
     class="st2"
     id="path6" /><g
     fill="#e6e6e6"
     transform="matrix(0.22546,0,0,0.22546,-25.864207,-209.99636)"
     id="g8"><path
       d="m 2240.95,1276.76 h 131.29 v 432 h -131.29 z"
       id="path7" /><circle
       cx="2305.6001"
       cy="1145.88"
       r="81.18"
       id="circle7" /><path
       d="m 2018.6,1264.05 c -102.71,-8.47 -149.29,69.88 -149.29,69.88 0,0 -29.65,-69.88 -110.12,-69.88 -80.47,0 -112.59,55.06 -112.59,55.06 v -42.35 h -131.29 v 432 h 131.29 v -261.35 c 0,-33.43 27.1,-60.53 60.53,-60.53 33.43,0 60.53,27.1 60.53,60.53 v 261.35 h 128.12 v -261 c 0,-34.21 27.73,-61.94 61.94,-61.94 34.21,0 61.94,27.73 61.94,61.94 v 261 h 130.24 v -294.35 c 0,-46.59 -28.59,-141.89 -131.3,-150.36 m -565.41,54.36 -65.65,84.71 c 0,0 -44.47,-33.88 -81.88,-35.29 -17.73,-0.67 -46.65,3.69 -51.61,24.61 -3.78,15.94 7.02,25.99 20.14,32.44 14.85,7.3 31.14,11.86 47,16.36 40.59,11.53 83.81,28.14 110,63.08 32.18,42.92 28.37,110.03 -1.42,153.34 -27.06,39.34 -74.19,56.64 -119.99,61.6 -11.76,1.27 -23.59,1.8 -35.41,1.75 -103.06,-0.47 -154.82,-39.53 -181.65,-65.88 l 81.88,-85.65 c 0,0 43.76,45.65 94.12,42.82 50.35,-2.82 60.24,-32.94 41.88,-50.82 -18.36,-17.88 -75.29,-30.12 -102.59,-39.53 -34.8,-12 -66.65,-35.87 -80.18,-71.08 -19.82,-51.59 -0.14,-112.06 40.57,-147.35 35.57,-30.84 83.65,-42.74 129.96,-40.09 101.65,5.8 154.83,54.98 154.83,54.98 m 1431.53,331.52 V 1276.75 H 2757.9 v 39.75 c -33.35,-33.1 -76.71,-53.1 -124.12,-53.1 -105.26,0 -190.59,98.59 -190.59,220.2 0,121.61 85.33,220.2 190.59,220.2 47.25,0 90.48,-19.87 123.78,-52.76 -0.4,3.37 0.18,13.09 0.13,14.23 -0.64,12.35 -2.24,24.69 -5.01,36.75 -9.78,42.49 -37.62,73.57 -81.58,80.72 -51.47,8.37 -100.64,-14.81 -142.55,-42.44 -0.96,-0.64 -1.92,-1.27 -2.88,-1.91 0,0 -68.68,99.73 -68.71,99.76 -1.25,1.82 28.09,21.49 29.81,22.57 78.27,49.19 191.67,63.04 278.03,27.56 15.38,-6.32 30.03,-14.48 43.18,-24.68 55.61,-43.11 72.42,-116.15 75.96,-183.03 0.15,-2.9 2.35,-30.16 0.78,-30.64 m -214.94,-68.24 c -48.67,0 -88.12,-42.8 -88.12,-95.61 0,-52.81 39.45,-95.61 88.12,-95.61 48.55,0 87.94,42.61 88.12,95.26 v 0.7 c -0.18,52.65 -39.57,95.26 -88.12,95.26"
       id="path8" /></g></svg>
