<svg xmlns="http://www.w3.org/2000/svg" xml:space="preserve" viewBox="0 0 624.652 256.436"><path fill="#1a96f8" d="M98.143 174.082v-46.42l-27.69 34.953L.727 251.009c-1.734 2.198-.17 5.427 2.63 5.427h105.417c48.347 0 75.45-40.325 73.684-82.354z"/><path fill="#851dcc" d="M98.86.042S61.727-2.328 37.508 28.69C20.56 51.355 19.752 72.977 19.752 76.912h78.392v50.75l28.467-35.933 69.348-84.62c2.313-2.821.304-7.067-3.346-7.067z"/><path fill="#330369" d="M19.754 76.912c0 .417.01.636.01.636s-3.02 54.99 50.693 85.069l27.687-34.507v-51.2h-78.39z"/><path fill="#1d2228" d="m98.143 127.662-27.69 34.953 27.695 11.474z" class="st2"/><path fill="#0766dc" d="M182.458 174.082c-1.165-27.727-14.894-56.197-43.384-74.315l-12.468-8.042L98.14 127.66l.005 46.423z"/><path fill="#1d2228" d="m97.828 128.11 28.783-36.38-28.783-15.063Z" class="st2"/><g fill="#e6e6e6" transform="translate(-25.864 -209.996)scale(.22546)"><path d="M2240.95 1276.76h131.29v432h-131.29z"/><circle cx="2305.6" cy="1145.88" r="81.18"/><path d="M2018.6 1264.05c-102.71-8.47-149.29 69.88-149.29 69.88s-29.65-69.88-110.12-69.88-112.59 55.06-112.59 55.06v-42.35h-131.29v432h131.29v-261.35c0-33.43 27.1-60.53 60.53-60.53s60.53 27.1 60.53 60.53v261.35h128.12v-261c0-34.21 27.73-61.94 61.94-61.94s61.94 27.73 61.94 61.94v261h130.24v-294.35c0-46.59-28.59-141.89-131.3-150.36m-565.41 54.36-65.65 84.71s-44.47-33.88-81.88-35.29c-17.73-.67-46.65 3.69-51.61 24.61-3.78 15.94 7.02 25.99 20.14 32.44 14.85 7.3 31.14 11.86 47 16.36 40.59 11.53 83.81 28.14 110 63.08 32.18 42.92 28.37 110.03-1.42 153.34-27.06 39.34-74.19 56.64-119.99 61.6-11.76 1.27-23.59 1.8-35.41 1.75-103.06-.47-154.82-39.53-181.65-65.88l81.88-85.65s43.76 45.65 94.12 42.82c50.35-2.82 60.24-32.94 41.88-50.82s-75.29-30.12-102.59-39.53c-34.8-12-66.65-35.87-80.18-71.08-19.82-51.59-.14-112.06 40.57-147.35 35.57-30.84 83.65-42.74 129.96-40.09 101.65 5.8 154.83 54.98 154.83 54.98m1431.53 331.52v-373.18H2757.9v39.75c-33.35-33.1-76.71-53.1-124.12-53.1-105.26 0-190.59 98.59-190.59 220.2s85.33 220.2 190.59 220.2c47.25 0 90.48-19.87 123.78-52.76-.4 3.37.18 13.09.13 14.23-.64 12.35-2.24 24.69-5.01 36.75-9.78 42.49-37.62 73.57-81.58 80.72-51.47 8.37-100.64-14.81-142.55-42.44-.96-.64-1.92-1.27-2.88-1.91 0 0-68.68 99.73-68.71 99.76-1.25 1.82 28.09 21.49 29.81 22.57 78.27 49.19 191.67 63.04 278.03 27.56 15.38-6.32 30.03-14.48 43.18-24.68 55.61-43.11 72.42-116.15 75.96-183.03.15-2.9 2.35-30.16.78-30.64m-214.94-68.24c-48.67 0-88.12-42.8-88.12-95.61s39.45-95.61 88.12-95.61c48.55 0 87.94 42.61 88.12 95.26v.7c-.18 52.65-39.57 95.26-88.12 95.26"/></g></svg>