<svg xmlns="http://www.w3.org/2000/svg" xml:space="preserve" viewBox="0 0 128 128"><defs><path id="reuse-0" fill="#1a96f8" d="M63.841 86.264V63.73L50.398 80.697l-33.85 42.914c-.842 1.067-.083 2.634 1.277 2.634h51.177c23.472 0 36.63-19.577 35.772-39.98z"/><path id="reuse-1" fill="#851dcc" d="M64.19 1.772S46.161.622 34.403 15.68c-8.228 11.003-8.62 21.5-8.62 23.41h38.058V63.73l13.82-17.445 33.666-41.081c1.123-1.37.148-3.431-1.624-3.431z"/><path id="reuse-2" fill="#330369" d="M25.785 39.09c0 .203.005.31.005.31S24.324 66.095 50.4 80.697l13.442-16.752V39.09z"/><path id="reuse-3" fill="#1d2228" d="M63.841 63.729 50.398 80.697l13.446 5.57z"/><path id="reuse-4" fill="#0766dc" d="M104.774 86.264c-.566-13.46-7.23-27.282-21.062-36.078l-6.053-3.904-13.82 17.446.003 22.537Z"/><path id="reuse-5" fill="#1d2228" d="m63.688 63.946 13.974-17.662-13.974-7.312Z"/></defs><g stroke="#fff" stroke-width="7.229"><use stroke-width="3.50953492" href="#reuse-0"/><use stroke-width="3.50953492" href="#reuse-1"/><use stroke-width="3.50953492" href="#reuse-2"/><use stroke-width="3.50953492" class="st2" href="#reuse-3"/><use stroke-width="3.50953492" href="#reuse-4"/><use stroke-width="3.50953492" class="st2" href="#reuse-5"/></g><g stroke-width="0" paint-order="fill markers stroke"><use href="#reuse-0"/><use href="#reuse-1"/><use href="#reuse-2"/><use class="st2" href="#reuse-3"/><use href="#reuse-4"/><use class="st2" href="#reuse-5"/></g></svg>